# xmcd
#
# Track frame offsets:
#       150
#       17812
#       37717
#       55235
#       70430
#       90442
#       112295
#       136092
#       152902
#       170275
#       189785
#       207332
#       228300
#       250495
#       267712
#       284395
#       302582
#
# Disc length: 4299 seconds
#
# Revision: 1
# Processed by: cddbd v1.4PL0 Copyright (c) Steve Scherf et al.
# Submitted via: MusiCat 1.1
#
DISCID=ed10c911
DTITLE=Gary Floyd - Back Door Preacher Man
DYEAR=1999
DGENRE=
TTITLE0=Spirit on the Wind
TTITLE1=Don't send me away
TTITLE2=Franklyn and Susie
TTITLE3=Can't be satisfied
TTITLE4=Won't be sad
TTITLE5=Spoonful
TTITLE6=Wayfaring Stranger
TTITLE7=Bodean
TTITLE8=A Better Man
TTITLE9=More than a lifetime
TTITLE10=The Rejected Ones
TTITLE11=World of Trouble
TTITLE12=Can't do that
TTITLE13=King Bee (Kissing Cousins version)
TTITLE14=Angel flying too close to the Ground
TTITLE15=Honey Bee
TTITLE16=From the Darkness (To the Light)
EXTD=1999\n\n\nsubmitted by Stamppot
EXTT0=
EXTT1=
EXTT2=
EXTT3=
EXTT4=
EXTT5=
EXTT6=
EXTT7=
EXTT8=
EXTT9=
EXTT10=
EXTT11=
EXTT12=
EXTT13=
EXTT14=
EXTT15=
EXTT16=
PLAYORDER=
